<?xml version="1.0" encoding="UTF-8"?>
<svg id="Layer_1" data-name="Layer 1" xmlns="http://www.w3.org/2000/svg" viewBox="0 0 200 291.59">
  <defs>
    <style>
      .cls-1 {
        fill: none;
      }
    </style>
  </defs>
  <g>
    <path d="M65.97,209.72c-3.6-1.4-6.61-2.06-9.47-2.06H14.08c-1.95,0-3.36,2.45-3.53,3.7L.04,286.25c-.16,1.13.14,2.19.85,3,.68.79,1.69,1.24,2.77,1.24h0l39.06-.02c14.68,0,24.51-6.69,26.99-18.34.82-3.86,1.33-7.78,1.57-11.98.29-5.27-2.16-9.83-6.56-12.5,5.22-2.84,8.53-7.85,9.24-14.17.12-1.04.27-2.09.42-3.11.33-2.25.67-4.58.65-6.99-.05-6.37-3.43-11.48-9.05-13.67ZM46.56,239.45h-18.14s2.19-15.51,2.19-15.51h18.33c2.52.12,3.97,1.62,4,4.12l-1.13,7.18c-.93,2.58-2.69,4-5.25,4.21ZM49.54,260.6l-1,7.63c-.87,3.35-3.07,5.32-6.56,5.85l-18.47.02,2.56-18.2,18.91.02c2.02.27,4.39,1.3,4.56,4.68Z"/>
    <path d="M154.72,207.62h0l-15.09.04c-1.82,0-3.34,2.18-3.54,3.61l-8.07,56.5c-.57,3.96-3.86,7.04-7.84,7.31-4.28.29-8.03.28-11.82-.05-1.54-.13-2.92-.87-3.88-2.07-1.03-1.3-1.47-2.97-1.23-4.71l7.9-56.66c.15-1.09-.12-2.09-.78-2.84-.63-.73-1.55-1.13-2.57-1.13h0l-14.71.03c-1.92,0-3.49,1.99-3.75,3.85l-7.88,56.14c-.39,2.76-.3,5.71.29,9.27.97,5.96,4.71,10.6,10.26,12.75,3.3,1.28,6.23,1.91,8.93,1.91h22.92s0,.01,0,.01c3.49,0,6.84-.96,9.06-1.68,9.39-3.05,15.47-11.17,17.12-22.87l7.88-55.9c.11-.79-.15-1.6-.73-2.27-.66-.75-1.65-1.26-2.47-1.26Z"/>
    <path d="M196.43,207.63h0l-28.49,6.86c-1.73,0-3.49,1.92-3.7,3.49l-1.22,11.7c-.14.97.18,1.97.86,2.76.68.78,1.62,1.23,2.58,1.24l11.26-1.97-10.07,54.57c-.16,1.1.14,2.15.83,2.94.71.82,1.79,1.28,2.96,1.28h0l13.76-.02c2.24,0,3.92-1.64,4.27-4.17l10.49-74.84c.14-.99-.12-1.93-.74-2.63-.66-.76-1.68-1.19-2.8-1.19Z"/>
  </g>
  <g>
    <path class="cls-1" d="M169.72,17.64c-7.11,7.18-20.19,24.23-27.63,30.37-18.98-5.92-20.47-6.94-42.09-6.98-21.63.04-23.11,1.07-42.09,6.98-7.44-6.15-20.52-23.19-27.63-30.37-2.66-2.69-7.25-9.41-11.12-5.53-1.3,1.3-3.86,48.78-1.1,54.39,1.21,2.45,7.7,8.19,10.15,9.93.75-.63.36-.22,1.09-1.14.36-.46.85-1.24,1.12-1.69l6.08-10.47c11.82,2.11,3.57,13.01.64,22.5-2.21,7.18-6.97,35.61-6.46,42.35.51,6.74,5.7,12.4,11.17,13.6,1.57-12.24,2.49-29.18,14.2-35.88-.7-3.16-1.81-2.56-2.48-6.11-.52-2.76.06-4.8-.44-7.73-2.55-1.69-4.93-1.51-7.7-3.21.16-3.39,2.95-7.54,5.44-8.46,3.31-1.22,12.3,5.75,17.96,9.06,2.71,1.59,7.24,2.91,9.63,4.65-.27,3.22-3.67,11.27-5.65,13.31-2.05,2.12-8.93,5.16-11.88,8.04-6.37,6.22-6.34,20.13-7.83,31.11-.95,7.02-.81,10.31,5.05,12.6,12.46,4.86,25.86-7.24,33.52-13.41,3.45-2.78,2.58-6.09,2.57-12.16-.01-26.11,1.31-20.15-9.73-22.92-5.15-1.29-6.09-7.98-3.45-12.81,2.15-3.94,10.82-5.12,18.93-5.09,8.11-.02,16.78,1.16,18.93,5.09,2.64,4.83,1.7,11.52-3.45,12.81-11.03,2.76-9.71-3.2-9.72,22.92,0,6.07-.87,9.38,2.57,12.16,7.65,6.18,21.05,18.27,33.52,13.41,5.86-2.28,6-5.57,5.05-12.6-1.49-10.98-1.46-24.89-7.83-31.11-2.95-2.88-9.82-5.92-11.88-8.04-1.98-2.04-5.38-10.09-5.65-13.31,2.38-1.74,6.91-3.06,9.63-4.65,5.66-3.32,14.66-10.28,17.96-9.06,2.49.92,5.28,5.07,5.44,8.46-2.77,1.7-5.15,1.52-7.7,3.21-.5,2.92.08,4.97-.44,7.73-.67,3.55-1.78,2.95-2.48,6.11,11.7,6.71,12.63,23.64,14.2,35.88,5.47-1.2,10.67-6.85,11.17-13.6.51-6.74-4.25-35.17-6.46-42.35-2.92-9.49-11.17-20.39.64-22.5l6.08,10.47c.27.45.76,1.22,1.12,1.69.72.92.34.51,1.08,1.14,2.45-1.74,8.94-7.48,10.15-9.93,2.76-5.61.2-53.08-1.1-54.39-3.87-3.88-8.46,2.84-11.12,5.53Z"/>
    <path d="M177.98,0c-8.52,0-11.78,4.96-16.21,9.14l-18.26,18.76c-1.07,1.17-5.17,5.46-5.99,6.96-10.6-.65-15.25-4.51-36.87-4.51-.22,0-.43,0-.64,0-.22,0-.42,0-.65,0-21.62,0-26.27,3.86-36.87,4.51-.82-1.5-4.92-5.79-5.99-6.96l-18.26-18.76C33.8,4.96,30.53,0,22.02,0c-7.73,0-12.43,4.2-14.2,10.5-2.03,7.2-2.58,38.12-2.6,47.32-.04,19.39,9.94,20.69,19.56,29.96-2.35,18.98-12.1,42.47,1.26,56.59,7.42,7.84,13.38,6.16,15.02,11.76,4.37,14.97,20.44,17.03,35.53,12.02,1.44-.48,5.12-2.3,6.42-2.48.82-.11,10.83,2.28,14.24,2.51.88.06,1.81.09,2.74.1.94-.01,1.86-.04,2.74-.1,3.41-.24,13.42-2.62,14.24-2.51,1.3.18,4.98,2,6.42,2.48,15.1,5.01,31.17,2.94,35.53-12.02,1.63-5.6,7.6-3.92,15.02-11.76,13.36-14.12,3.61-37.61,1.26-56.59,9.62-9.27,19.6-10.57,19.56-29.96-.02-9.19-.57-40.11-2.6-47.32C190.41,4.2,185.71,0,177.98,0ZM181.94,66.5c-1.2,2.45-7.7,8.19-10.15,9.93-.74-.63-.36-.22-1.08-1.14-.36-.46-.85-1.24-1.12-1.69l-6.08-10.47c-11.82,2.11-3.57,13.01-.64,22.5,2.21,7.18,6.97,35.61,6.46,42.35-.51,6.74-5.7,12.4-11.17,13.6-1.57-12.24-2.49-29.18-14.2-35.88.7-3.16,1.81-2.56,2.48-6.11.52-2.76-.06-4.8.44-7.73,2.55-1.69,4.93-1.51,7.7-3.21-.16-3.39-2.95-7.54-5.44-8.46-3.31-1.22-12.3,5.75-17.96,9.06-2.71,1.59-7.24,2.91-9.63,4.65.27,3.22,3.67,11.27,5.65,13.31,2.05,2.12,8.93,5.16,11.88,8.04,6.37,6.22,6.34,20.13,7.83,31.11.95,7.02.81,10.31-5.05,12.6-12.46,4.86-25.86-7.24-33.52-13.41-3.45-2.78-2.58-6.09-2.57-12.16.01-26.11-1.31-20.15,9.72-22.92,5.15-1.29,6.09-7.98,3.45-12.81-2.15-3.94-10.82-5.12-18.93-5.09-8.11-.02-16.78,1.16-18.93,5.09-2.64,4.83-1.7,11.52,3.45,12.81,11.03,2.76,9.71-3.2,9.73,22.92,0,6.07.87,9.38-2.57,12.16-7.65,6.18-21.05,18.27-33.52,13.41-5.86-2.28-6-5.57-5.05-12.6,1.49-10.98,1.46-24.89,7.83-31.11,2.95-2.88,9.82-5.92,11.88-8.04,1.98-2.04,5.38-10.09,5.65-13.31-2.38-1.74-6.91-3.06-9.63-4.65-5.66-3.32-14.66-10.28-17.96-9.06-2.49.92-5.28,5.07-5.44,8.46,2.77,1.7,5.15,1.52,7.7,3.21.5,2.92-.08,4.97.44,7.73.67,3.55,1.78,2.95,2.48,6.11-11.7,6.71-12.63,23.64-14.2,35.88-5.47-1.2-10.66-6.85-11.17-13.6-.51-6.74,4.25-35.17,6.46-42.35,2.92-9.49,11.17-20.39-.64-22.5l-6.08,10.47c-.27.45-.76,1.22-1.12,1.69-.72.92-.34.51-1.09,1.14-2.45-1.74-8.94-7.48-10.15-9.93-2.76-5.61-.2-53.08,1.1-54.39,3.87-3.88,8.46,2.84,11.12,5.53,7.11,7.18,20.19,24.23,27.63,30.37,18.98-5.92,20.46-6.94,42.09-6.98,21.62.04,23.11,1.07,42.09,6.98,7.44-6.15,20.52-23.19,27.63-30.37,2.66-2.69,7.25-9.41,11.12-5.53,1.3,1.3,3.86,48.78,1.1,54.39Z"/>
  </g>
</svg>