<?xml version="1.0" encoding="UTF-8"?>
<svg id="Layer_1" data-name="Layer 1" xmlns="http://www.w3.org/2000/svg" viewBox="0 0 200 180">
  <defs>
    <style>
      .cls-1 {
        fill: none;
      }
    </style>
  </defs>
  <path class="cls-1" d="M173.56,18.61c-7.5,7.58-21.3,25.56-29.15,32.04-20.03-6.24-21.59-7.33-44.41-7.37-22.82.04-24.38,1.13-44.41,7.37-7.85-6.48-21.65-24.47-29.15-32.04-2.81-2.84-7.65-9.93-11.73-5.83-1.37,1.38-4.07,51.47-1.16,57.38,1.27,2.58,8.13,8.64,10.71,10.48.79-.67.38-.23,1.15-1.21.38-.49.9-1.31,1.18-1.78l6.42-11.04c12.47,2.23,3.76,13.72.68,23.74-2.33,7.57-7.35,37.57-6.82,44.68.54,7.12,6.01,13.08,11.79,14.35,1.66-12.92,2.63-30.79,14.98-37.86-.74-3.34-1.91-2.7-2.61-6.45-.55-2.91.07-5.07-.46-8.15-2.69-1.78-5.2-1.59-8.13-3.38.17-3.58,3.11-7.96,5.74-8.93,3.49-1.29,12.98,6.06,18.95,9.56,2.86,1.68,7.64,3.07,10.16,4.9-.29,3.4-3.87,11.89-5.96,14.05-2.17,2.24-9.42,5.44-12.53,8.48-6.72,6.57-6.69,21.24-8.26,32.83-1.01,7.41-.86,10.88,5.32,13.29,13.15,5.13,27.29-7.64,35.36-14.15,3.64-2.93,2.72-6.42,2.71-12.83-.01-27.55,1.38-21.26-10.26-24.18-5.43-1.36-6.42-8.42-3.64-13.51,2.27-4.15,11.42-5.4,19.98-5.37,8.56-.02,17.71,1.22,19.98,5.37,2.78,5.09,1.79,12.15-3.64,13.51-11.64,2.91-10.25-3.37-10.26,24.18,0,6.41-.92,9.89,2.72,12.83,8.07,6.52,22.21,19.28,35.36,14.15,6.18-2.41,6.33-5.88,5.32-13.29-1.57-11.59-1.54-26.26-8.26-32.83-3.11-3.04-10.36-6.24-12.53-8.48-2.09-2.16-5.67-10.65-5.96-14.05,2.52-1.83,7.3-3.22,10.16-4.9,5.97-3.5,15.46-10.85,18.95-9.56,2.63.97,5.57,5.35,5.74,8.93-2.92,1.79-5.44,1.6-8.13,3.38-.53,3.09.09,5.24-.46,8.15-.71,3.74-1.88,3.11-2.61,6.45,12.35,7.07,13.32,24.94,14.98,37.86,5.78-1.27,11.25-7.23,11.79-14.35.54-7.11-4.48-37.11-6.82-44.68-3.08-10.02-11.79-21.51.68-23.74l6.42,11.04c.29.47.8,1.29,1.18,1.78.76.98.36.54,1.14,1.21,2.58-1.83,9.43-7.89,10.71-10.48,2.91-5.92.21-56.01-1.16-57.38-4.08-4.09-8.92,2.99-11.73,5.83Z"/>
  <path d="M182.28,0c-8.99,0-12.43,5.23-17.1,9.64l-19.27,19.79c-1.13,1.23-5.46,5.76-6.32,7.34-11.18-.68-16.09-4.76-38.91-4.76-.23,0-.45,0-.68,0-.23,0-.45,0-.68,0-22.81,0-27.72,4.08-38.91,4.76-.87-1.58-5.2-6.11-6.32-7.34l-19.27-19.79C30.15,5.23,26.71,0,17.72,0,9.56,0,4.61,4.44,2.74,11.08.6,18.68.02,51.31,0,61.01c-.04,20.45,10.48,21.83,20.64,31.61-2.48,20.03-12.77,44.81,1.33,59.71,7.83,8.27,14.12,6.5,15.85,12.41,4.61,15.79,21.56,17.97,37.49,12.69,1.52-.5,5.4-2.43,6.77-2.62.86-.12,11.43,2.4,15.02,2.65.93.06,1.91.09,2.9.11.99-.01,1.97-.04,2.9-.11,3.59-.25,14.16-2.77,15.02-2.65,1.37.19,5.26,2.12,6.77,2.62,15.93,5.28,32.88,3.11,37.49-12.69,1.72-5.91,8.02-4.14,15.85-12.41,14.1-14.9,3.81-39.68,1.33-59.71,10.15-9.78,20.68-11.15,20.64-31.61-.02-9.7-.6-42.32-2.74-49.92C195.39,4.44,190.44,0,182.28,0ZM186.45,70.16c-1.27,2.58-8.12,8.64-10.71,10.48-.79-.67-.38-.23-1.14-1.21-.38-.49-.9-1.31-1.18-1.78l-6.42-11.04c-12.47,2.23-3.76,13.72-.68,23.74,2.33,7.57,7.35,37.57,6.82,44.68-.54,7.12-6.01,13.08-11.79,14.35-1.66-12.92-2.63-30.79-14.98-37.86.74-3.34,1.91-2.7,2.61-6.45.55-2.91-.07-5.07.46-8.15,2.69-1.78,5.2-1.59,8.13-3.38-.17-3.58-3.11-7.96-5.74-8.93-3.49-1.29-12.98,6.06-18.95,9.56-2.86,1.68-7.64,3.07-10.16,4.9.29,3.4,3.87,11.89,5.96,14.05,2.17,2.24,9.42,5.44,12.53,8.48,6.72,6.57,6.69,21.24,8.26,32.83,1.01,7.41.86,10.88-5.32,13.29-13.15,5.13-27.29-7.64-35.36-14.15-3.64-2.93-2.72-6.42-2.72-12.83.01-27.55-1.38-21.26,10.26-24.18,5.43-1.36,6.42-8.42,3.64-13.51-2.27-4.15-11.42-5.4-19.98-5.37-8.56-.02-17.71,1.22-19.98,5.37-2.78,5.09-1.79,12.15,3.64,13.51,11.64,2.91,10.25-3.37,10.26,24.18,0,6.41.92,9.89-2.71,12.83-8.07,6.52-22.21,19.28-35.36,14.15-6.18-2.41-6.33-5.88-5.32-13.29,1.57-11.59,1.54-26.26,8.26-32.83,3.11-3.04,10.36-6.24,12.53-8.48,2.09-2.16,5.67-10.65,5.96-14.05-2.52-1.83-7.3-3.22-10.16-4.9-5.97-3.5-15.46-10.85-18.95-9.56-2.63.97-5.57,5.35-5.74,8.93,2.92,1.79,5.44,1.6,8.13,3.38.53,3.09-.08,5.24.46,8.15.71,3.74,1.87,3.11,2.61,6.45-12.35,7.07-13.32,24.94-14.98,37.86-5.78-1.27-11.25-7.23-11.79-14.35-.54-7.11,4.48-37.11,6.82-44.68,3.08-10.02,11.79-21.51-.68-23.74l-6.42,11.04c-.29.47-.8,1.29-1.18,1.78-.76.98-.36.54-1.15,1.21-2.58-1.83-9.43-7.89-10.71-10.48-2.91-5.92-.21-56.01,1.16-57.38,4.08-4.09,8.92,2.99,11.73,5.83,7.5,7.58,21.3,25.56,29.15,32.04,20.03-6.24,21.59-7.33,44.41-7.37,22.82.04,24.38,1.13,44.41,7.37,7.85-6.48,21.65-24.47,29.15-32.04,2.81-2.84,7.65-9.93,11.73-5.83,1.37,1.38,4.07,51.47,1.16,57.38Z"/>
</svg>