<?xml version="1.0" encoding="UTF-8"?>
<svg id="Layer_1" data-name="Layer 1" xmlns="http://www.w3.org/2000/svg" viewBox="0 0 211.02 310.9">
  <defs>
    <style>
      .cls-1 {
        fill: none;
      }

      .cls-2 {
        fill: #fff;
      }
    </style>
  </defs>
  <g>
    <path class="cls-2" d="M69.61,224.51c-3.8-1.48-6.97-2.17-9.99-2.17H14.85c-2.06,0-3.54,2.58-3.73,3.91L.04,305.26c-.17,1.19.15,2.31.89,3.17.72.83,1.79,1.3,2.92,1.3h0l41.21-.02c15.48,0,25.86-7.06,28.48-19.35.87-4.07,1.41-8.21,1.65-12.64.31-5.56-2.28-10.37-6.92-13.19,5.51-2.99,9-8.28,9.75-14.95.12-1.09.28-2.2.44-3.28.35-2.38.7-4.84.68-7.37-.05-6.72-3.62-12.11-9.55-14.42ZM49.12,255.87h-19.13s2.31-16.37,2.31-16.37h19.34c2.66.13,4.19,1.71,4.22,4.34l-1.2,7.58c-.98,2.72-2.84,4.22-5.54,4.44ZM52.27,278.19l-1.05,8.05c-.91,3.54-3.24,5.61-6.92,6.17l-19.49.02,2.7-19.2,19.95.02c2.13.28,4.64,1.38,4.82,4.94Z"/>
    <path class="cls-2" d="M163.25,222.29h0l-15.92.05c-1.92,0-3.52,2.3-3.74,3.81l-8.51,59.62c-.6,4.18-4.08,7.42-8.27,7.71-4.51.31-8.47.29-12.47-.05-1.63-.14-3.08-.91-4.09-2.18-1.09-1.37-1.55-3.14-1.3-4.97l8.33-59.79c.16-1.15-.13-2.21-.82-3-.67-.77-1.63-1.19-2.71-1.19h0l-15.52.04c-2.03,0-3.68,2.1-3.95,4.06l-8.31,59.24c-.41,2.91-.31,6.02.3,9.78,1.02,6.28,4.97,11.19,10.82,13.46,3.49,1.35,6.57,2.01,9.43,2.01h24.18s0,.01,0,.01c3.68,0,7.22-1.01,9.56-1.77,9.91-3.22,16.32-11.79,18.06-24.13l8.31-58.98c.12-.84-.16-1.69-.77-2.39-.69-.79-1.74-1.33-2.61-1.33Z"/>
    <path class="cls-2" d="M207.26,222.3h0l-30.06,7.24c-1.83,0-3.68,2.02-3.91,3.68l-1.29,12.34c-.14,1.02.19,2.08.91,2.91.71.82,1.71,1.3,2.72,1.31l11.88-2.08-10.62,57.58c-.16,1.17.15,2.27.88,3.11.75.86,1.89,1.35,3.12,1.35h0l14.51-.02c2.36,0,4.13-1.73,4.51-4.4l11.07-78.97c.15-1.05-.13-2.03-.78-2.78-.7-.8-1.77-1.26-2.95-1.26Z"/>
  </g>
  <g>
    <g>
      <path class="cls-1" d="M205.91,62.51c-.02-9.7-.6-42.32-2.74-49.92-1.87-6.65-6.82-11.08-14.98-11.08-8.98,0-12.43,5.23-17.1,9.64l-19.27,19.79c-1.12,1.23-5.46,5.76-6.32,7.34-11.18-.68-16.09-4.76-38.91-4.76-.23,0-.45,0-.68,0-.23,0-.45,0-.68,0-22.81,0-27.72,4.08-38.91,4.76-.87-1.58-5.2-6.11-6.32-7.34l-19.27-19.79C36.06,6.73,32.62,1.5,23.63,1.5c-8.16,0-13.11,4.44-14.98,11.08-2.14,7.6-2.72,40.22-2.74,49.92-.04,20.45,10.48,21.83,20.64,31.61-2.48,20.03-12.77,44.81,1.33,59.71,7.83,8.27,14.12,6.5,15.85,12.41,4.61,15.79,21.56,17.97,37.49,12.69,1.52-.5,5.4-2.43,6.77-2.62.86-.12,11.43,2.4,15.02,2.65.93.06,1.91.09,2.9.11.99-.01,1.97-.04,2.9-.11,3.59-.25,14.16-2.77,15.02-2.65,1.37.19,5.26,2.12,6.77,2.62,15.93,5.28,32.88,3.11,37.49-12.69,1.72-5.91,8.02-4.14,15.85-12.41,14.1-14.9,3.81-39.68,1.33-59.71,10.15-9.78,20.68-11.15,20.64-31.61Z"/>
      <path class="cls-2" d="M65.99,182.99c-5.09,0-9.71-.99-13.49-2.98-5.27-2.76-8.84-7.26-10.62-13.35-.67-2.3-2.12-3.08-5.09-4.5-2.71-1.3-6.42-3.08-10.41-7.29-11.33-11.98-7.77-29.46-4.32-46.37.98-4.83,1.92-9.4,2.5-13.8-2.22-2.07-4.46-3.76-6.63-5.4-7.49-5.66-13.96-10.54-13.92-26.77.02-8.6.55-42.34,2.8-50.33C8.99,4.44,14.97,0,23.23,0h.01c8.17,0,12.14,4.03,15.98,7.93.7.71,1.4,1.42,2.14,2.12l19.31,19.84c.21.23.47.51.78.84,1.99,2.14,4.13,4.47,5.23,5.99,3.66-.29,6.64-.95,10.06-1.7,6.38-1.41,13.61-3,28.06-3h.7s.68,0,.68,0h.02c14.46,0,21.68,1.59,28.06,3,3.42.75,6.41,1.41,10.06,1.7,1.11-1.52,3.25-3.86,5.23-5.99.31-.33.57-.61.75-.81l19.3-19.83c.78-.74,1.48-1.45,2.18-2.16,3.84-3.9,7.82-7.93,15.98-7.93h.01c8.26,0,14.25,4.44,16.42,12.18,2.25,7.97,2.78,41.72,2.8,50.33h0c.03,16.23-6.43,21.12-13.92,26.77-2.17,1.64-4.41,3.33-6.63,5.4.58,4.4,1.51,8.98,2.5,13.8,3.45,16.91,7.01,34.4-4.32,46.38-3.99,4.21-7.7,6-10.41,7.29-2.96,1.42-4.42,2.21-5.09,4.5-1.78,6.1-5.35,10.59-10.62,13.35-7.34,3.85-17.83,3.97-28.79.34-.64-.21-1.55-.61-2.61-1.06-1.25-.54-3.1-1.34-3.82-1.48-.59.05-2.88.51-4.9.92-3.65.74-7.78,1.58-9.89,1.73-.86.06-1.8.09-2.98.11-1.22-.02-2.16-.05-3.02-.11-2.12-.15-6.25-.99-9.9-1.73-2.03-.41-4.31-.88-4.9-.92-.71.14-2.57.94-3.81,1.48-1.06.46-1.97.85-2.61,1.06-5.31,1.76-10.51,2.64-15.3,2.64ZM23.24,3h0c-8.87,0-12.26,5.43-13.54,9.99-1.94,6.9-2.66,36.9-2.68,49.52-.03,14.74,5.6,18.99,12.73,24.37,2.42,1.83,4.92,3.71,7.45,6.15l.54.52-.09.75c-.59,4.75-1.63,9.85-2.63,14.78-3.29,16.16-6.7,32.87,3.56,43.71,3.61,3.81,6.89,5.39,9.52,6.65,3,1.44,5.6,2.69,6.67,6.37,1.54,5.29,4.61,9.17,9.13,11.54,6.62,3.47,16.26,3.53,26.45.14.51-.17,1.41-.56,2.37-.97,2.19-.95,3.7-1.58,4.68-1.71.57-.08,1.55.1,5.82.97,3.38.69,7.59,1.54,9.51,1.67.8.05,1.69.09,2.81.1,1.08-.02,1.97-.05,2.77-.1,1.92-.13,6.13-.99,9.5-1.67,4.28-.87,5.25-1.05,5.82-.97.98.13,2.49.76,4.68,1.71.95.41,1.85.8,2.36.97,10.19,3.38,19.83,3.33,26.45-.14,4.52-2.37,7.59-6.25,9.13-11.54,1.07-3.68,3.67-4.93,6.67-6.37,2.64-1.26,5.92-2.84,9.53-6.65,10.26-10.84,6.85-27.55,3.56-43.71-1-4.93-2.04-10.03-2.63-14.78l-.09-.75.54-.52c2.53-2.44,5.03-4.33,7.45-6.15,7.13-5.38,12.76-9.64,12.73-24.37h0c-.03-12.63-.74-42.63-2.68-49.52-1.28-4.56-4.67-9.99-13.54-9.99h0c-6.91,0-10.13,3.26-13.85,7.04-.73.74-1.46,1.48-2.22,2.2l-19.22,19.75c-.15.17-.41.45-.73.79-1.41,1.51-4.71,5.06-5.35,6.23l-.46.83-.95-.06c-4.29-.26-7.74-1.02-11.38-1.83-6.23-1.37-13.29-2.93-27.41-2.93h-.7s-.68,0-.68,0h-.02c-14.13,0-21.19,1.56-27.41,2.93-3.65.81-7.1,1.57-11.38,1.83l-.95.06-.46-.83c-.64-1.17-3.94-4.71-5.35-6.23-.32-.34-.58-.63-.77-.83l-19.24-19.76c-.72-.67-1.45-1.41-2.17-2.15-3.72-3.78-6.93-7.04-13.85-7.04Z"/>
    </g>
    <path class="cls-2" d="M179.47,20.11c-7.5,7.58-21.3,25.56-29.15,32.04-20.03-6.24-21.59-7.33-44.41-7.37-22.82.04-24.38,1.13-44.41,7.37-7.85-6.48-21.65-24.47-29.15-32.04-2.81-2.84-7.65-9.93-11.73-5.83-1.37,1.38-4.07,51.47-1.16,57.38,1.27,2.58,8.13,8.64,10.71,10.48.79-.67.38-.23,1.15-1.21.38-.49.9-1.31,1.18-1.78l6.42-11.04c12.47,2.23,3.76,13.72.68,23.74-2.33,7.57-7.35,37.57-6.82,44.68.54,7.12,6.01,13.08,11.79,14.35,1.66-12.92,2.63-30.79,14.98-37.86-.74-3.34-1.91-2.7-2.61-6.45-.55-2.91.07-5.07-.46-8.15-2.69-1.78-5.2-1.59-8.13-3.38.17-3.58,3.11-7.96,5.74-8.93,3.49-1.29,12.98,6.06,18.95,9.56,2.86,1.68,7.64,3.07,10.16,4.9-.29,3.4-3.87,11.89-5.96,14.05-2.17,2.24-9.42,5.44-12.53,8.48-6.72,6.57-6.69,21.24-8.26,32.83-1.01,7.41-.86,10.88,5.32,13.29,13.15,5.13,27.29-7.64,35.36-14.15,3.64-2.93,2.72-6.42,2.71-12.83-.01-27.55,1.38-21.26-10.26-24.18-5.43-1.36-6.42-8.42-3.64-13.51,2.27-4.15,11.42-5.4,19.98-5.37,8.56-.02,17.71,1.22,19.98,5.37,2.78,5.09,1.79,12.15-3.64,13.51-11.64,2.91-10.25-3.37-10.26,24.18,0,6.41-.92,9.89,2.72,12.83,8.07,6.52,22.21,19.28,35.36,14.15,6.18-2.41,6.33-5.88,5.32-13.29-1.57-11.59-1.54-26.26-8.26-32.83-3.11-3.04-10.36-6.24-12.53-8.48-2.09-2.16-5.67-10.65-5.96-14.05,2.52-1.83,7.3-3.22,10.16-4.9,5.97-3.5,15.46-10.85,18.95-9.56,2.63.97,5.57,5.35,5.74,8.93-2.92,1.79-5.44,1.6-8.13,3.38-.53,3.09.09,5.24-.46,8.15-.71,3.74-1.88,3.11-2.61,6.45,12.35,7.07,13.32,24.94,14.98,37.86,5.78-1.27,11.25-7.23,11.79-14.35.54-7.11-4.48-37.11-6.82-44.68-3.08-10.02-11.79-21.51.68-23.74l6.42,11.04c.29.47.8,1.29,1.18,1.78.76.98.36.54,1.14,1.21,2.58-1.83,9.43-7.89,10.71-10.48,2.91-5.92.21-56.01-1.16-57.38-4.08-4.09-8.92,2.99-11.73,5.83Z"/>
  </g>
</svg>