<?xml version="1.0" encoding="UTF-8"?>
<svg id="Layer_1" data-name="Layer 1" xmlns="http://www.w3.org/2000/svg" viewBox="0 0 857.24 180">
  <defs>
    <style>
      .cls-1 {
        fill: none;
      }

      .cls-2 {
        fill: #d2147c;
      }
    </style>
  </defs>
  <g>
    <path class="cls-2" d="M309.39,64.05c-3.8-1.48-6.97-2.17-9.99-2.17h-44.77c-2.06,0-3.54,2.58-3.73,3.91l-11.08,79.01c-.17,1.19.15,2.31.89,3.17.72.83,1.79,1.3,2.92,1.3h0l41.21-.02c15.48,0,25.86-7.06,28.48-19.35.87-4.07,1.41-8.21,1.65-12.64.31-5.56-2.28-10.37-6.92-13.19,5.51-2.99,9-8.28,9.75-14.95.12-1.09.28-2.2.44-3.28.35-2.38.7-4.84.68-7.37-.05-6.72-3.62-12.11-9.55-14.42ZM288.9,95.41h-19.13s2.31-16.37,2.31-16.37h19.34c2.66.13,4.19,1.71,4.22,4.34l-1.2,7.58c-.98,2.72-2.84,4.22-5.54,4.44ZM292.05,117.73l-1.05,8.05c-.91,3.54-3.24,5.61-6.92,6.17l-19.49.02,2.7-19.2,19.95.02c2.13.28,4.64,1.38,4.82,4.94Z"/>
    <path class="cls-2" d="M765.68,63.67c-2.46-.87-5.34-1.8-8.39-1.8h-44.42s0-.01,0-.01c-2.12,0-3.73,2.13-4.01,4.1l-11.06,78.86c-.16,1.15.17,2.29.92,3.15.71.81,1.72,1.28,2.79,1.28l14.7.02h0c2.27,0,4.22-1.69,4.54-3.93l3.85-27,7.16.03,13.33,27.28c1.15,2.35,3.36,3.64,6.22,3.64h.02l15.7-.03c.94,0,2.16-.6,2.65-1.3.56-.79.59-2.4.22-3.17l-13.52-27.68c11.69-3.07,18.23-11.87,19.98-26.83,2.41-14.06-1.28-23.27-10.7-26.6ZM753.91,85.28l-1.22,8.87c-1.2,4.26-4.44,6.82-8.69,6.85l-17.07.13,3.17-22.06,17.95.05c1.71,0,3.17.58,4.22,1.67,1.08,1.11,1.66,2.7,1.64,4.47Z"/>
    <path class="cls-2" d="M682.32,62.4c-3.52-1.29-6.98-1.94-10.28-1.94l-22.46-.02h-.03c-3.99,0-7.99.69-11.91,2.05-9.9,3.44-15.85,11.82-17.7,24.92l-5.33,37.79c-1.24,8.8,1.13,19.56,11.51,23.36,3.44,1.26,6.44,1.87,9.16,1.87h.02l25.83-.03c3.44,0,6.66-.91,9.35-1.8,9.79-3.24,16.16-11.85,17.92-24.27l5.22-36.77c1.83-12.9-2.18-21.84-11.31-25.17ZM670.83,85.27l-5.64,39.82c-.62,4.36-4.01,7.62-8.24,7.91-4.8.33-9.09.32-13.91-.02-1.63-.12-3.16-.93-4.21-2.23-1.01-1.25-1.45-2.82-1.23-4.4l5.66-40.38c.64-4.59,4.29-7.86,9.07-8.12,1.98-.11,3.94-.16,5.97-.16s4.2.06,6.46.17c1.96.1,3.66.9,4.78,2.25,1.12,1.36,1.58,3.19,1.3,5.17Z"/>
    <path class="cls-2" d="M403.02,61.84h0l-15.92.05c-1.92,0-3.52,2.3-3.74,3.81l-8.51,59.62c-.6,4.18-4.08,7.42-8.27,7.71-4.51.31-8.47.29-12.47-.05-1.63-.14-3.08-.91-4.09-2.18-1.09-1.37-1.55-3.14-1.3-4.97l8.33-59.79c.16-1.15-.13-2.21-.82-3-.67-.77-1.63-1.19-2.71-1.19h0l-15.52.04c-2.03,0-3.68,2.1-3.95,4.06l-8.31,59.24c-.41,2.91-.31,6.02.3,9.78,1.02,6.28,4.97,11.19,10.82,13.46,3.49,1.35,6.57,2.01,9.43,2.01h24.18s0,.01,0,.01c3.68,0,7.22-1.01,9.56-1.77,9.91-3.22,16.32-11.79,18.06-24.13l8.31-58.98c.12-.84-.16-1.69-.77-2.39-.69-.79-1.74-1.33-2.61-1.33Z"/>
    <path class="cls-2" d="M602.19,64.18c-3.68-1.58-6.83-2.31-9.89-2.31h-44c-2.08,0-3.53,2.6-3.72,3.99l-11.08,78.95c-.17,1.18.15,2.29.89,3.14.72.83,1.77,1.3,2.89,1.3l14,.03c.06,0,.13,0,.19,0,2.45,0,4.25-1.68,4.63-4.32l3.79-26.63,22.2-.03c3.77,0,7.39-.54,11.38-1.69l.1-.03c14.03-5.1,16.71-16.34,18.26-27.42.59-4.23.99-8.78-.14-13.4-1.32-5.42-4.69-9.54-9.49-11.59ZM565.37,79.06l18.07.09c1.65,0,3.06.57,4.1,1.62,1.1,1.11,1.71,2.72,1.72,4.53l-1.34,9.16c-1.25,4.01-4.51,6.52-8.53,6.54l-17.18.11,3.16-22.05Z"/>
    <path class="cls-2" d="M524.67,61.84h0l-41.32.04c-2.44,0-4.86.75-6.98,1.42l-.21.07c-6.25,1.95-11.1,6.55-13.66,12.97-2.19,5.5-3.93,16.08-2.91,22.48.93,5.87,4.74,10.49,10.19,12.35,2.91,1,5.29,1.47,7.47,1.5l21.45.23c1.31.01,2.5.52,3.35,1.42.84.9,1.27,2.09,1.21,3.37-.15,3-.52,5.72-1.16,8.53-.63,2.79-3.09,5.62-6.55,5.63l-35.38.14c-2.02,0-3.97,1.7-4.25,3.69l-1.31,9.24c-.15,1.08.18,2.18.9,3.02.74.86,1.83,1.35,2.97,1.35h0l39.67-.02c11.91,0,20.71-5.32,24.77-14.96h0c2.47-5.86,4.36-17.89,3.08-24.61-1.66-8.77-9.06-14.06-19.79-14.15l-20.13-.17c-1.06,0-1.98-.4-2.65-1.13-.71-.77-1.06-1.82-.97-2.95.22-3.05.66-5.71,1.34-8.12.69-2.44,3.03-4.09,5.83-4.09l32.73-.04c2.13,0,4.16-1.66,4.43-3.62l1.36-9.86c.12-.84-.16-1.7-.79-2.41-.69-.8-1.73-1.29-2.69-1.29Z"/>
    <path class="cls-2" d="M856.35,62.9c-.68-.78-1.97-1.05-2.87-1.05h-63.26c-1.97.01-3.6,2.26-3.81,3.75l-1.31,9.19-.02.18c-.03,1.11.36,2.15,1.1,2.9.72.74,1.72,1.15,2.82,1.16l19.48.03-9.26,65.76c-.16,1.16.16,2.28.9,3.14.73.84,1.79,1.32,2.92,1.32h0l14.87-.02c2.31,0,3.98-2.06,4.26-4.04l9.33-66.14,19.69-.03c2.42,0,4.23-1.42,4.72-3.71l1.3-9.37c.12-.9-.31-2.41-.87-3.05Z"/>
    <path class="cls-2" d="M447.03,61.84h0l-30.06,7.24c-1.83,0-3.68,2.02-3.91,3.68l-1.29,12.34c-.14,1.02.19,2.08.91,2.91.71.82,1.71,1.3,2.72,1.31l11.88-2.08-10.62,57.58c-.16,1.17.15,2.27.88,3.11.75.86,1.89,1.35,3.12,1.35h0l14.51-.02c2.36,0,4.13-1.73,4.51-4.4l11.07-78.97c.15-1.05-.13-2.03-.78-2.78-.7-.8-1.77-1.26-2.95-1.26Z"/>
  </g>
  <g>
    <path class="cls-1" d="M173.56,18.61c-7.5,7.58-21.3,25.56-29.15,32.04-20.03-6.24-21.59-7.33-44.41-7.37-22.82.04-24.38,1.13-44.41,7.37-7.85-6.48-21.65-24.47-29.15-32.04-2.81-2.84-7.65-9.93-11.73-5.83-1.37,1.38-4.07,51.47-1.16,57.38,1.27,2.58,8.12,8.64,10.71,10.48.79-.67.38-.23,1.15-1.21.38-.49.9-1.31,1.18-1.78l6.42-11.04c12.47,2.23,3.76,13.72.68,23.74-2.33,7.57-7.35,37.57-6.82,44.68.54,7.12,6.01,13.08,11.79,14.35,1.66-12.92,2.63-30.79,14.98-37.86-.74-3.34-1.91-2.7-2.61-6.45-.55-2.91.07-5.07-.46-8.15-2.69-1.78-5.2-1.59-8.13-3.38.17-3.58,3.11-7.96,5.74-8.93,3.49-1.29,12.98,6.06,18.95,9.56,2.86,1.68,7.64,3.07,10.16,4.9-.29,3.4-3.87,11.89-5.96,14.05-2.17,2.24-9.42,5.44-12.53,8.48-6.72,6.57-6.69,21.24-8.26,32.83-1.01,7.41-.86,10.88,5.32,13.29,13.15,5.13,27.29-7.64,35.36-14.15,3.64-2.93,2.72-6.42,2.71-12.83-.01-27.55,1.38-21.26-10.26-24.18-5.43-1.36-6.42-8.42-3.64-13.51,2.27-4.15,11.42-5.4,19.98-5.37,8.56-.02,17.71,1.22,19.98,5.37,2.78,5.09,1.79,12.15-3.64,13.51-11.64,2.91-10.25-3.37-10.26,24.18,0,6.41-.92,9.89,2.72,12.83,8.07,6.52,22.21,19.28,35.36,14.15,6.18-2.41,6.33-5.88,5.32-13.29-1.57-11.59-1.54-26.26-8.26-32.83-3.11-3.04-10.36-6.24-12.53-8.48-2.09-2.16-5.67-10.65-5.96-14.05,2.52-1.83,7.3-3.22,10.16-4.9,5.97-3.5,15.46-10.85,18.95-9.56,2.63.97,5.57,5.35,5.74,8.93-2.92,1.79-5.44,1.6-8.13,3.38-.53,3.09.09,5.24-.46,8.15-.71,3.74-1.88,3.11-2.61,6.45,12.35,7.07,13.32,24.94,14.98,37.86,5.78-1.27,11.25-7.23,11.79-14.35.54-7.11-4.48-37.11-6.82-44.68-3.08-10.02-11.79-21.51.68-23.74l6.42,11.04c.29.47.8,1.29,1.18,1.78.76.98.36.54,1.14,1.21,2.58-1.83,9.43-7.89,10.71-10.48,2.91-5.92.21-56.01-1.16-57.38-4.08-4.09-8.92,2.99-11.73,5.83Z"/>
    <path class="cls-2" d="M182.28,0c-8.99,0-12.43,5.23-17.1,9.64l-19.27,19.79c-1.12,1.23-5.46,5.76-6.32,7.34-11.18-.68-16.09-4.76-38.91-4.76-.23,0-.45,0-.68,0-.23,0-.45,0-.68,0-22.81,0-27.72,4.08-38.91,4.76-.87-1.58-5.2-6.11-6.32-7.34l-19.27-19.79C30.15,5.23,26.71,0,17.72,0,9.56,0,4.61,4.44,2.74,11.08.6,18.68.02,51.31,0,61.01c-.04,20.45,10.48,21.83,20.64,31.61-2.48,20.03-12.77,44.81,1.33,59.71,7.83,8.27,14.12,6.5,15.85,12.41,4.61,15.79,21.56,17.97,37.49,12.69,1.52-.5,5.4-2.43,6.77-2.62.86-.12,11.43,2.4,15.02,2.65.93.06,1.91.09,2.9.11.99-.01,1.97-.04,2.9-.11,3.59-.25,14.16-2.77,15.02-2.65,1.37.19,5.26,2.12,6.77,2.62,15.93,5.28,32.88,3.11,37.49-12.69,1.72-5.91,8.02-4.14,15.85-12.41,14.1-14.9,3.81-39.68,1.33-59.71,10.15-9.78,20.68-11.15,20.64-31.61-.02-9.7-.6-42.32-2.74-49.92C195.39,4.44,190.44,0,182.28,0ZM186.45,70.16c-1.27,2.58-8.12,8.64-10.71,10.48-.79-.67-.38-.23-1.14-1.21-.38-.49-.9-1.31-1.18-1.78l-6.42-11.04c-12.47,2.23-3.76,13.72-.68,23.74,2.33,7.57,7.35,37.57,6.82,44.68-.54,7.12-6.01,13.08-11.79,14.35-1.66-12.92-2.63-30.79-14.98-37.86.74-3.34,1.91-2.7,2.61-6.45.55-2.91-.07-5.07.46-8.15,2.69-1.78,5.2-1.59,8.13-3.38-.17-3.58-3.11-7.96-5.74-8.93-3.49-1.29-12.98,6.06-18.95,9.56-2.86,1.68-7.64,3.07-10.16,4.9.29,3.4,3.87,11.89,5.96,14.05,2.17,2.24,9.42,5.44,12.53,8.48,6.72,6.57,6.69,21.24,8.26,32.83,1.01,7.41.86,10.88-5.32,13.29-13.15,5.13-27.29-7.64-35.36-14.15-3.64-2.93-2.72-6.42-2.72-12.83.01-27.55-1.38-21.26,10.26-24.18,5.43-1.36,6.42-8.42,3.64-13.51-2.27-4.15-11.42-5.4-19.98-5.37-8.56-.02-17.71,1.22-19.98,5.37-2.78,5.09-1.79,12.15,3.64,13.51,11.64,2.91,10.25-3.37,10.26,24.18,0,6.41.92,9.89-2.71,12.83-8.07,6.52-22.21,19.28-35.36,14.15-6.18-2.41-6.33-5.88-5.32-13.29,1.57-11.59,1.54-26.26,8.26-32.83,3.11-3.04,10.36-6.24,12.53-8.48,2.09-2.16,5.67-10.65,5.96-14.05-2.52-1.83-7.3-3.22-10.16-4.9-5.97-3.5-15.46-10.85-18.95-9.56-2.63.97-5.57,5.35-5.74,8.93,2.92,1.79,5.44,1.6,8.13,3.38.53,3.09-.08,5.24.46,8.15.71,3.74,1.87,3.11,2.61,6.45-12.35,7.07-13.32,24.94-14.98,37.86-5.78-1.27-11.25-7.23-11.79-14.35-.54-7.11,4.48-37.11,6.82-44.68,3.08-10.02,11.79-21.51-.68-23.74l-6.42,11.04c-.29.47-.8,1.29-1.18,1.78-.76.98-.36.54-1.15,1.21-2.58-1.83-9.43-7.89-10.71-10.48-2.91-5.92-.21-56.01,1.16-57.38,4.08-4.09,8.92,2.99,11.73,5.83,7.5,7.58,21.3,25.56,29.15,32.04,20.03-6.24,21.59-7.33,44.41-7.37,22.82.04,24.38,1.13,44.41,7.37,7.85-6.48,21.65-24.47,29.15-32.04,2.81-2.84,7.65-9.93,11.73-5.83,1.37,1.38,4.07,51.47,1.16,57.38Z"/>
  </g>
</svg>